<?xml version="1.0" standalone="no"?>
<!DOCTYPE svg PUBLIC "-//W3C//DTD SVG 20010904//EN"
 "http://www.w3.org/TR/2001/REC-SVG-20010904/DTD/svg10.dtd">
<svg version="1.0" xmlns="http://www.w3.org/2000/svg"
 width="530.000000pt" height="238.000000pt" viewBox="0 0 530.000000 238.000000"
 preserveAspectRatio="xMidYMid meet">

<g transform="translate(0.000000,238.000000) scale(0.100000,-0.100000)"
fill="#000000" stroke="none">
<path d="M939 1428 c-147 -108 -152 -113 -122 -116 24 -2 34 -9 38 -25 3 -12
4 -112 3 -222 l-3 -200 -40 -5 -40 -5 0 -65 c0 -63 1 -65 27 -68 22 -3 30 2
37 21 13 34 58 67 92 67 15 0 41 -11 57 -25 29 -24 30 -24 47 -5 43 47 118 32
153 -31 l17 -29 153 0 c136 0 153 2 159 18 30 85 150 92 184 10 7 -18 18 -28
28 -26 13 3 17 20 19 91 3 101 13 92 -130 122 l-88 18 0 79 0 78 56 0 c47 0
55 3 52 18 -3 15 -16 17 -93 17 l-90 0 -3 -142 -3 -143 -49 0 -50 0 2 222 3
222 25 6 c23 5 20 8 -35 51 -187 143 -236 179 -244 179 -5 0 -78 -51 -162
-112z m189 -150 c3 -36 2 -38 -27 -38 -26 0 -31 4 -31 24 0 40 11 57 34 54 16
-2 22 -11 24 -40z m-100 -221 l3 -68 -38 3 -38 3 -3 54 c-4 73 1 83 40 79 l33
-3 3 -68z m220 1 l3 -68 -41 0 -40 0 0 63 c0 35 3 67 7 71 4 4 21 6 38 4 30
-3 30 -3 33 -70z"/>
<path d="M3070 1080 l0 -260 40 0 40 0 0 58 c0 46 4 63 20 77 19 17 20 15 57
-59 l37 -76 48 0 48 0 -59 113 -60 112 54 75 c30 41 55 76 55 77 0 2 -20 3
-44 3 -43 0 -45 -1 -92 -70 -26 -38 -51 -70 -56 -70 -4 0 -8 63 -8 140 l0 140
-40 0 -40 0 0 -260z"/>
<path d="M2020 1071 l0 -251 45 0 45 0 0 94 0 93 69 5 c42 3 82 13 102 24 91
54 91 205 0 258 -27 16 -59 21 -148 24 l-113 5 0 -252z m221 143 c18 -22 16
-81 -3 -101 -10 -10 -40 -18 -72 -21 l-56 -4 0 71 0 71 59 0 c41 0 62 -5 72
-16z"/>
<path d="M3819 1297 c-34 -17 -51 -35 -72 -77 -27 -52 -28 -60 -25 -165 3 -89
8 -118 26 -151 40 -77 134 -111 216 -80 25 9 50 24 56 31 15 18 30 10 30 -16
0 -14 7 -19 30 -19 l30 0 0 135 0 135 -100 0 -100 0 0 -40 0 -40 55 0 c49 0
55 -2 55 -21 0 -33 -31 -77 -63 -90 -39 -16 -95 -1 -120 33 -22 29 -35 148
-23 212 14 75 80 117 146 95 30 -11 60 -52 60 -84 0 -11 11 -15 46 -15 l47 0
-6 42 c-7 51 -32 86 -83 115 -54 31 -145 31 -205 0z"/>
<path d="M2464 1196 c-37 -16 -64 -51 -64 -83 0 -20 5 -23 39 -23 31 0 41 4
46 20 8 25 50 37 70 20 8 -7 15 -27 15 -45 0 -31 -2 -32 -49 -38 -69 -8 -110
-32 -127 -72 -36 -87 7 -165 90 -165 13 0 39 11 59 24 28 20 37 22 41 10 8
-21 51 -37 80 -30 20 5 26 13 26 35 0 16 -6 31 -15 35 -12 4 -15 27 -16 113 0
59 -5 124 -12 143 -21 61 -110 88 -183 56z m106 -231 c0 -34 -20 -74 -41 -80
-31 -10 -59 12 -59 46 0 24 6 33 33 44 49 22 67 19 67 -10z"/>
<path d="M2810 1192 c-57 -29 -75 -72 -75 -182 0 -77 4 -101 20 -130 63 -108
226 -82 242 38 l6 42 -40 0 c-37 0 -41 -3 -46 -29 -7 -32 -36 -54 -60 -45 -24
9 -37 52 -37 124 0 77 11 114 35 124 25 9 53 -11 57 -41 3 -25 7 -28 47 -31
l44 -3 -6 41 c-6 48 -29 77 -74 96 -43 18 -71 18 -113 -4z"/>
<path d="M4276 1200 c-44 -14 -65 -39 -83 -99 -11 -38 -14 -75 -10 -122 10
-113 44 -155 133 -165 67 -7 112 17 142 76 20 39 23 57 20 130 -4 93 -18 132
-59 163 -30 22 -100 31 -143 17z m95 -81 c19 -19 21 -30 17 -114 -3 -97 -7
-108 -45 -119 -17 -5 -30 0 -49 19 -25 25 -26 30 -23 111 4 76 7 88 28 105 30
24 46 24 72 -2z"/>
<path d="M3370 1193 c0 -5 27 -89 60 -188 33 -99 60 -185 60 -192 0 -24 -39
-53 -71 -53 -28 0 -30 -2 -27 -32 3 -29 7 -33 37 -36 50 -5 89 16 116 62 20
36 135 404 135 435 0 6 -17 11 -40 11 -37 0 -40 -2 -49 -37 -18 -67 -50 -197
-54 -218 -2 -12 -8 -1 -15 30 -6 28 -24 88 -39 135 l-28 85 -43 3 c-23 2 -42
-1 -42 -5z"/>
<path d="M1552 1033 l3 -56 83 -20 c46 -10 86 -17 88 -14 3 3 -11 37 -30 76
l-36 71 -56 0 -55 0 3 -57z"/>
<path d="M882 757 c-28 -30 -28 -68 1 -95 46 -44 117 -14 117 48 0 63 -75 93
-118 47z m82 -13 c21 -21 20 -47 -3 -68 -26 -23 -52 -17 -70 16 -14 24 -14 28
3 47 23 25 49 27 70 5z"/>
<path d="M914 719 c-3 -6 -2 -15 4 -21 13 -13 32 -2 32 18 0 16 -26 19 -36 3z"/>
<path d="M1052 757 c-28 -30 -28 -68 1 -95 46 -44 117 -14 117 48 0 63 -75 93
-118 47z m82 -13 c9 -8 16 -24 16 -34 0 -22 -26 -50 -46 -50 -17 0 -54 35 -54
52 0 18 31 48 51 48 10 0 25 -7 33 -16z"/>
<path d="M1085 720 c-8 -14 3 -30 21 -30 8 0 14 9 14 20 0 21 -24 28 -35 10z"/>
<path d="M1562 757 c-28 -29 -28 -57 -1 -91 41 -53 119 -21 119 48 0 62 -75
89 -118 43z m82 -13 c30 -30 9 -84 -33 -84 -35 0 -56 48 -35 79 18 25 46 27
68 5z"/>
<path d="M1595 720 c-8 -14 3 -30 21 -30 8 0 14 9 14 20 0 21 -24 28 -35 10z"/>
</g>
</svg>
