<?xml version="1.0" standalone="no"?>
<!DOCTYPE svg PUBLIC "-//W3C//DTD SVG 20010904//EN"
 "http://www.w3.org/TR/2001/REC-SVG-20010904/DTD/svg10.dtd">
<svg version="1.0" xmlns="http://www.w3.org/2000/svg"
 width="500.000000pt" height="500.000000pt" viewBox="0 0 500.000000 500.000000"
 preserveAspectRatio="xMidYMid meet">

<g transform="translate(0.000000,500.000000) scale(0.100000,-0.100000)"
fill="#000000" stroke="none">
<path d="M694 2974 c-162 -116 -254 -187 -254 -195 0 -4 15 -9 33 -11 l32 -3
0 -245 0 -245 -42 -3 -43 -3 0 -75 0 -74 30 0 c24 0 32 6 44 34 15 37 59 66
99 66 13 0 40 -11 59 -24 34 -22 35 -23 57 -5 56 46 137 28 168 -36 l17 -35
167 0 168 0 28 43 c38 55 87 70 140 42 22 -12 42 -33 50 -53 9 -22 19 -32 31
-30 15 3 17 17 17 103 l0 100 -80 18 c-44 10 -98 24 -120 30 l-40 12 -3 73
c-4 92 4 102 75 102 39 0 53 4 51 13 -3 8 -36 13 -106 15 l-102 3 0 -161 0
-160 -55 0 -55 0 2 248 3 247 23 3 c12 2 22 7 22 11 0 9 -301 238 -324 247 -6
2 -48 -21 -92 -52z m116 -239 c0 -32 -3 -35 -29 -35 -35 0 -48 33 -25 67 22
34 54 15 54 -32z m-110 -240 l0 -75 -40 0 -40 0 0 75 0 75 40 0 40 0 0 -75z
m240 0 l0 -75 -40 0 -40 0 0 75 0 75 40 0 40 0 0 -75z"/>
<path d="M2970 2520 l0 -290 45 0 45 0 0 63 c0 70 21 117 45 97 7 -6 28 -44
46 -85 l33 -75 53 0 54 0 -67 125 -66 125 38 53 c20 28 48 67 62 85 l24 32
-50 0 -51 0 -52 -75 c-29 -41 -56 -75 -61 -75 -4 0 -8 70 -8 155 l0 155 -45 0
-45 0 0 -290z"/>
<path d="M3838 2776 c-60 -22 -85 -43 -115 -93 -25 -43 -28 -60 -31 -154 -5
-139 12 -202 67 -252 71 -64 171 -72 247 -21 37 26 53 21 54 -13 0 -8 14 -13
35 -13 l35 0 0 150 0 150 -115 0 -115 0 0 -45 0 -45 64 0 64 0 -7 -33 c-16
-67 -51 -97 -116 -97 -44 0 -91 40 -105 88 -13 47 -13 166 0 213 15 54 59 90
110 91 52 1 91 -26 106 -73 11 -32 14 -34 63 -37 28 -2 51 1 51 5 0 24 -25 92
-42 116 -43 61 -171 93 -250 63z"/>
<path d="M1800 2505 l0 -275 50 0 50 0 0 105 0 105 51 0 c83 0 135 18 173 60
81 89 47 232 -63 269 -19 6 -85 11 -147 11 l-114 0 0 -275z m238 169 c17 -12
22 -25 22 -58 0 -60 -25 -81 -98 -81 l-57 0 -3 78 -3 77 58 0 c37 0 67 -6 81
-16z"/>
<path d="M2295 2646 c-40 -18 -63 -45 -71 -84 l-6 -32 45 0 c37 0 47 4 52 20
10 30 42 44 71 31 19 -8 24 -18 24 -49 l0 -38 -67 -14 c-50 -10 -75 -21 -102
-45 -32 -29 -35 -38 -35 -88 -1 -64 22 -105 68 -120 36 -12 87 -2 115 24 l22
20 30 -25 c31 -27 47 -30 87 -20 29 8 31 58 2 74 -18 10 -20 21 -21 133 0 147
-11 186 -59 209 -41 21 -113 23 -155 4z m115 -255 c0 -70 -41 -107 -89 -81
-42 22 -19 90 34 103 47 11 55 8 55 -22z"/>
<path d="M2670 2637 c-60 -40 -75 -78 -75 -192 0 -111 17 -162 66 -198 37 -26
106 -33 151 -14 45 19 69 54 76 112 l5 45 -47 0 c-42 0 -46 -2 -46 -24 0 -38
-32 -70 -62 -63 -34 9 -48 50 -48 146 0 86 15 124 48 129 30 5 48 -11 56 -48
5 -28 8 -30 52 -30 l47 0 -6 40 c-3 23 -13 52 -22 66 -35 55 -137 71 -195 31z"/>
<path d="M4290 2642 c-22 -10 -44 -34 -60 -62 -21 -39 -25 -58 -25 -140 0 -85
3 -100 27 -141 44 -75 129 -98 216 -59 62 28 86 85 87 205 0 78 -3 96 -25 135
-30 53 -76 80 -140 80 -25 0 -61 -8 -80 -18z m126 -83 c16 -18 19 -37 19 -121
0 -93 -2 -101 -24 -119 -13 -10 -31 -19 -41 -19 -10 0 -28 9 -41 19 -22 18
-24 26 -24 119 0 112 14 142 65 142 15 0 35 -9 46 -21z"/>
<path d="M3300 2645 c0 -3 29 -94 65 -202 36 -108 65 -207 65 -219 0 -27 -44
-64 -76 -64 -21 0 -24 -5 -24 -35 l0 -35 50 0 c41 0 55 5 84 31 42 36 58 77
126 316 28 98 53 186 56 196 5 14 -1 17 -40 17 l-45 0 -21 -71 c-12 -39 -30
-108 -39 -153 -17 -76 -18 -79 -25 -46 -4 19 -23 88 -43 153 l-37 117 -48 0
c-26 0 -48 -2 -48 -5z"/>
<path d="M1282 2468 l3 -63 92 -21 c51 -12 95 -19 97 -16 3 2 -13 40 -35 83
l-39 79 -61 0 -60 0 3 -62z"/>
<path d="M539 2161 c-36 -36 -37 -60 -3 -100 33 -39 74 -41 109 -6 34 33 33
78 -1 110 -36 33 -69 31 -105 -4z m97 -22 c17 -18 17 -23 4 -46 -20 -35 -52
-46 -79 -27 -23 17 -28 63 -9 82 19 19 63 14 84 -9z"/>
<path d="M570 2110 c0 -13 7 -20 20 -20 13 0 20 7 20 20 0 13 -7 20 -20 20
-13 0 -20 -7 -20 -20z"/>
<path d="M731 2164 c-40 -33 -41 -71 -3 -107 35 -34 75 -35 107 -2 40 39 32
96 -16 120 -39 21 -53 19 -88 -11z m87 -16 c7 -7 12 -24 12 -38 0 -33 -17 -50
-50 -50 -14 0 -31 5 -38 12 -15 15 -15 61 0 76 7 7 24 12 38 12 14 0 31 -5 38
-12z"/>
<path d="M760 2110 c0 -13 7 -20 20 -20 13 0 20 7 20 20 0 13 -7 20 -20 20
-13 0 -20 -7 -20 -20z"/>
<path d="M1313 2180 c-72 -29 -44 -151 34 -150 76 1 106 93 46 140 -28 22 -46
24 -80 10z m76 -34 c18 -21 9 -66 -14 -82 -43 -28 -99 32 -69 75 18 24 65 28
83 7z"/>
<path d="M1325 2120 c-9 -15 4 -30 26 -30 12 0 19 7 19 20 0 21 -33 29 -45 10z"/>
</g>
</svg>
